<svg width="25" height="25" viewBox="0 0 25 25" fill="none" xmlns="http://www.w3.org/2000/svg">
<circle cx="12.5" cy="12.5" r="12.5" fill="white"/>
<path d="M4 11C3.44772 11 3 11.4477 3 12C3 12.5523 3.44772 13 4 13L4 11ZM20.3321 12.7071C20.7226 12.3166 20.7226 11.6834 20.3321 11.2929L13.9681 4.92893C13.5776 4.53841 12.9445 4.53841 12.5539 4.92893C12.1634 5.31946 12.1634 5.95262 12.5539 6.34315L18.2108 12L12.5539 17.6569C12.1634 18.0474 12.1634 18.6805 12.5539 19.0711C12.9445 19.4616 13.5776 19.4616 13.9681 19.0711L20.3321 12.7071ZM4 13L19.625 13V11L4 11L4 13Z" fill="#CC4F08"/>
</svg>
