<svg width="80" height="80" viewBox="0 0 80 80" fill="none" xmlns="http://www.w3.org/2000/svg">
<rect width="80" height="80" rx="40" fill="#CC4F08"/>
<path d="M23.9846 34.4615C23.9846 29.8304 25.8243 25.389 29.099 22.1144C32.3737 18.8397 36.8151 17 41.4462 17C46.0772 17 50.5187 18.8397 53.7933 22.1144C57.068 25.389 58.9077 29.8304 58.9077 34.4615" stroke="white" stroke-width="4" stroke-linecap="round" stroke-linejoin="round"/>
<path d="M20.4924 34.4614H62.4001" stroke="white" stroke-width="4" stroke-linecap="round" stroke-linejoin="round"/>
<path d="M17 44.9385H29.2231C31.5386 44.9385 33.7593 45.8583 35.3967 47.4957C37.034 49.133 37.9538 51.3537 37.9538 53.6692" stroke="white" stroke-width="4" stroke-linecap="round" stroke-linejoin="round"/>
<path d="M27.4769 53.6694H44.9385C46.7909 53.6694 48.5675 54.4053 49.8773 55.7152C51.1872 57.0251 51.9231 58.8016 51.9231 60.654C51.9231 61.1172 51.7391 61.5613 51.4116 61.8888C51.0842 62.2162 50.64 62.4002 50.1769 62.4002H17" stroke="white" stroke-width="4" stroke-linecap="round" stroke-linejoin="round"/>
</svg>
