<svg width="80" height="80" viewBox="0 0 80 80" fill="none" xmlns="http://www.w3.org/2000/svg">
<rect width="80" height="80" rx="40" fill="#CC4F08"/>
<path d="M39.8889 23.6665V39.805" stroke="white" stroke-width="6" stroke-linecap="round"/>
<path d="M39.8889 40L48.4445 48.5556" stroke="white" stroke-width="6" stroke-linecap="round"/>
<path d="M62.6869 25.2359L59.7994 21.8767C57.3511 19.3052 54.4052 17.2588 51.141 15.862C47.8768 14.4651 44.3624 13.7471 40.8119 13.7515C26.3197 13.7515 14.5619 25.5093 14.5619 40.0015C14.5619 54.4937 26.3197 66.2515 40.8119 66.2515C46.241 66.2511 51.5366 64.5682 55.9698 61.4343C60.4031 58.3004 63.7562 53.8695 65.5676 48.7515" stroke="white" stroke-width="6" stroke-miterlimit="10" stroke-linecap="round"/>
<path d="M71.4381 18.3222V33.4427C71.4381 34.0229 71.2076 34.5794 70.7973 34.9897C70.387 35.4 69.8305 35.6305 69.2503 35.6305H54.1297C52.1799 35.6305 51.2035 33.2745 52.5819 31.8962L67.7038 16.7743C69.0821 15.3933 71.4381 16.3723 71.4381 18.3222Z" fill="white"/>
</svg>
