<svg width="40" height="40" viewBox="0 0 40 40" fill="none" xmlns="http://www.w3.org/2000/svg">
<path d="M27.2929 5.41836C29.2251 5.42413 31.0766 6.19426 32.4429 7.56057C33.8092 8.92687 34.5793 10.7783 34.5851 12.7105V27.2934C34.5793 29.2256 33.8092 31.077 32.4429 32.4433C31.0766 33.8096 29.2251 34.5798 27.2929 34.5856H12.7101C10.7778 34.5798 8.92638 33.8096 7.56008 32.4433C6.19378 31.077 5.42364 29.2256 5.41787 27.2934V12.7105C5.42364 10.7783 6.19378 8.92687 7.56008 7.56057C8.92638 6.19426 10.7778 5.42413 12.7101 5.41836H27.2929V5.41836ZM27.2929 2.50195H12.7101C7.09521 2.50195 2.50146 7.0957 2.50146 12.7105V27.2934C2.50146 32.9082 7.09521 37.502 12.7101 37.502H27.2929C32.9077 37.502 37.5015 32.9082 37.5015 27.2934V12.7105C37.5015 7.0957 32.9077 2.50195 27.2929 2.50195V2.50195Z" fill="white"/>
<path d="M29.486 12.7225C29.0521 12.7225 28.628 12.5938 28.2672 12.3528C27.9065 12.1117 27.6253 11.7691 27.4592 11.3682C27.2932 10.9674 27.2497 10.5263 27.3344 10.1007C27.419 9.6752 27.628 9.2843 27.9348 8.9775C28.2416 8.6707 28.6325 8.46176 29.058 8.37711C29.4836 8.29247 29.9247 8.33591 30.3255 8.50195C30.7264 8.66799 31.069 8.94917 31.3101 9.30994C31.5511 9.6707 31.6798 10.0948 31.6798 10.5287C31.6804 10.817 31.6241 11.1025 31.514 11.369C31.404 11.6354 31.2424 11.8775 31.0386 12.0813C30.8348 12.2852 30.5927 12.4467 30.3263 12.5568C30.0598 12.6668 29.7743 12.7231 29.486 12.7225V12.7225Z" fill="white"/>
<path d="M20.0011 14.1654C21.1549 14.1654 22.2827 14.5076 23.2421 15.1486C24.2014 15.7896 24.9491 16.7007 25.3906 17.7666C25.8322 18.8326 25.9477 20.0055 25.7226 21.1371C25.4975 22.2687 24.9419 23.3082 24.1261 24.124C23.3102 24.9398 22.2708 25.4954 21.1392 25.7205C20.0076 25.9456 18.8346 25.8301 17.7687 25.3886C16.7027 24.947 15.7917 24.1993 15.1506 23.24C14.5096 22.2807 14.1675 21.1528 14.1675 19.999C14.1692 18.4524 14.7843 16.9695 15.878 15.8759C16.9716 14.7822 18.4544 14.1671 20.0011 14.1654V14.1654ZM20.0011 11.249C18.2705 11.249 16.5788 11.7622 15.1399 12.7237C13.7009 13.6851 12.5794 15.0517 11.9172 16.6505C11.2549 18.2494 11.0816 20.0087 11.4192 21.7061C11.7569 23.4034 12.5902 24.9625 13.8139 26.1862C15.0376 27.4099 16.5967 28.2433 18.2941 28.5809C19.9914 28.9185 21.7507 28.7452 23.3496 28.083C24.9484 27.4207 26.315 26.2992 27.2765 24.8603C28.2379 23.4213 28.7511 21.7296 28.7511 19.999C28.7511 17.6784 27.8292 15.4528 26.1883 13.8118C24.5473 12.1709 22.3217 11.249 20.0011 11.249V11.249Z" fill="white"/>
</svg>
