<svg width="60" height="60" viewBox="0 0 60 60" fill="none" xmlns="http://www.w3.org/2000/svg">
<rect width="60" height="60" rx="30" fill="#CC4F08"/>
<path d="M37.2923 15.4184C39.2245 15.4241 41.0759 16.1943 42.4422 17.5606C43.8085 18.9269 44.5787 20.7783 44.5845 22.7105V37.2934C44.5787 39.2256 43.8085 41.077 42.4422 42.4433C41.0759 43.8096 39.2245 44.5798 37.2923 44.5856H22.7094C20.7772 44.5798 18.9258 43.8096 17.5595 42.4433C16.1932 41.077 15.423 39.2256 15.4173 37.2934V22.7105C15.423 20.7783 16.1932 18.9269 17.5595 17.5606C18.9258 16.1943 20.7772 15.4241 22.7094 15.4184H37.2923ZM37.2923 12.502H22.7094C17.0946 12.502 12.5009 17.0957 12.5009 22.7105V37.2934C12.5009 42.9082 17.0946 47.502 22.7094 47.502H37.2923C42.9071 47.502 47.5009 42.9082 47.5009 37.2934V22.7105C47.5009 17.0957 42.9071 12.502 37.2923 12.502Z" fill="white"/>
<path d="M39.4854 22.723C39.0515 22.723 38.6274 22.5943 38.2666 22.3533C37.9058 22.1122 37.6247 21.7696 37.4586 21.3687C37.2926 20.9679 37.2491 20.5268 37.3338 20.1012C37.4184 19.6757 37.6274 19.2848 37.9342 18.978C38.241 18.6712 38.6319 18.4622 39.0574 18.3776C39.483 18.293 39.9241 18.3364 40.3249 18.5024C40.7258 18.6685 41.0684 18.9497 41.3094 19.3104C41.5505 19.6712 41.6792 20.0953 41.6792 20.5292C41.6798 20.8175 41.6235 21.103 41.5134 21.3695C41.4034 21.6359 41.2418 21.878 41.038 22.0818C40.8342 22.2857 40.5921 22.4472 40.3256 22.5573C40.0592 22.6673 39.7737 22.7236 39.4854 22.723Z" fill="white"/>
<path d="M30.0006 24.1654C31.1544 24.1654 32.2823 24.5076 33.2416 25.1486C34.2009 25.7896 34.9486 26.7007 35.3902 27.7666C35.8317 28.8326 35.9472 30.0055 35.7221 31.1371C35.497 32.2687 34.9414 33.3082 34.1256 34.124C33.3097 34.9398 32.2703 35.4954 31.1387 35.7205C30.0071 35.9456 28.8341 35.8301 27.7682 35.3886C26.7022 34.947 25.7912 34.1993 25.1502 33.24C24.5092 32.2807 24.167 31.1528 24.167 29.999C24.1687 28.4524 24.7838 26.9695 25.8775 25.8759C26.9711 24.7822 28.454 24.1671 30.0006 24.1654ZM30.0006 21.249C28.27 21.249 26.5783 21.7622 25.1394 22.7237C23.7004 23.6851 22.5789 25.0517 21.9167 26.6505C21.2544 28.2494 21.0811 30.0087 21.4187 31.7061C21.7564 33.4034 22.5897 34.9625 23.8134 36.1862C25.0371 37.4099 26.5962 38.2433 28.2936 38.5809C29.9909 38.9185 31.7502 38.7452 33.3491 38.083C34.9479 37.4207 36.3145 36.2992 37.276 34.8603C38.2374 33.4213 38.7506 31.7296 38.7506 29.999C38.7506 27.6784 37.8287 25.4528 36.1878 23.8118C34.5469 22.1709 32.3213 21.249 30.0006 21.249Z" fill="white"/>
</svg>
