<svg width="60" height="60" viewBox="0 0 60 60" fill="none" xmlns="http://www.w3.org/2000/svg">
<rect width="60" height="60" rx="30" fill="#CC4F08"/>
<path d="M44.0636 38.5078C42.9184 37.354 40.1448 35.6701 38.7991 34.9916C37.0466 34.1089 36.9024 34.0368 35.525 35.0601C34.6062 35.743 33.9953 36.353 32.9201 36.1237C31.8448 35.8944 29.5082 34.6014 27.4623 32.5621C25.4163 30.5228 24.0482 28.1185 23.8182 27.047C23.5881 25.9754 24.2083 25.3718 24.8848 24.4509C25.8382 23.1529 25.7661 22.9366 24.9511 21.1842C24.3158 19.8213 22.5828 17.0738 21.4246 15.9345C20.1856 14.7107 20.1856 14.927 19.3873 15.2588C18.7374 15.5322 18.1138 15.8646 17.5245 16.2517C16.3706 17.0183 15.7302 17.6551 15.2824 18.612C14.8345 19.5689 14.6333 21.8123 16.9461 26.0136C19.2589 30.2148 20.8816 32.3631 24.2401 35.712C27.5986 39.0609 30.1811 40.8615 33.9564 42.9787C38.6267 45.5942 40.4181 45.0844 41.378 44.6373C42.3379 44.1902 42.9775 43.5556 43.7456 42.4018C44.1338 41.8135 44.4669 41.1907 44.7408 40.5413C45.0733 39.7459 45.2896 39.7459 44.0636 38.5078Z" stroke="white" stroke-width="3" stroke-miterlimit="10"/>
</svg>
