<svg width="40" height="40" viewBox="0 0 40 40" fill="none" xmlns="http://www.w3.org/2000/svg">
<path d="M3.76556 11.163H11.9559C12.2061 8.42332 12.9783 5.96293 14.0878 4.06124C15.5562 1.54714 17.6446 0 20.0049 0C22.3652 0 24.4427 1.55788 25.9219 4.06124C27.0314 5.95219 27.8036 8.42332 28.0538 11.163H36.2333C37.2013 11.163 38.0715 11.9474 37.9954 12.9036L36.3529 35.5412C36.1463 38.3777 34.3407 40 31.7193 40H8.29037C5.37535 40 3.83082 37.9909 3.65679 35.5412L2.00349 12.9143C1.93823 11.9581 2.79751 11.163 3.76556 11.163ZM14.0008 11.163H25.9872C25.7479 8.78861 25.0844 6.68278 24.1381 5.07118C23.0504 3.19098 21.5711 2.01988 20.0049 2.01988C18.4277 2.01988 16.9593 3.19098 15.8499 5.08192C14.9036 6.68278 14.2509 8.79936 14.0008 11.163Z" fill="white"/>
<path d="M14.3456 31.5979C13.984 31.3484 13.891 30.8596 14.139 30.4957C14.387 30.1317 14.8726 30.0381 15.2343 30.2877C15.4616 30.4437 15.6993 30.5996 15.9576 30.7556C17.7762 31.8683 19.4502 32.4194 20.8452 32.4194C22.1058 32.4194 23.1288 31.9411 23.7798 30.974C23.8211 30.9012 23.8624 30.8596 23.8728 30.8284C24.0587 30.5269 24.1931 30.2045 24.2861 29.8925C24.4721 29.2478 24.4411 28.5823 24.1827 27.9792C23.9038 27.3449 23.3664 26.7314 22.5294 26.2218C21.9715 25.8787 21.2791 25.5771 20.4422 25.3483C18.3135 24.7452 16.7429 23.8925 15.8956 22.7487C14.9656 21.4905 14.8933 19.9723 15.8853 18.1317C16.5466 16.9151 17.9002 16.156 19.6155 16.0208C21.0931 15.9064 22.8704 16.26 24.6787 17.1854C25.0714 17.383 25.2264 17.8613 25.0197 18.2565C24.8131 18.6516 24.3481 18.8076 23.9554 18.5996C22.4158 17.8093 20.9485 17.5078 19.7292 17.6014C18.5615 17.695 17.6729 18.1525 17.2802 18.8804C16.6189 20.097 16.6292 21.0537 17.1666 21.7816C17.7866 22.6239 19.0782 23.279 20.8762 23.7886C21.8475 24.0693 22.6741 24.4229 23.3561 24.8388C24.4824 25.5251 25.2367 26.3882 25.6397 27.3241C26.053 28.2912 26.1047 29.3102 25.8257 30.3085C25.7017 30.7556 25.5054 31.2028 25.2367 31.6395C25.1747 31.7331 25.1334 31.8059 25.1024 31.8579C24.1414 33.2825 22.6638 33.9896 20.8658 34C19.1815 34 17.2182 33.3761 15.1516 32.1074C14.8933 31.9619 14.6246 31.7955 14.3456 31.5979Z" fill="black"/>
</svg>
