<svg width="40" height="40" viewBox="0 0 40 40" fill="none" xmlns="http://www.w3.org/2000/svg">
<path fill-rule="evenodd" clip-rule="evenodd" d="M19.5085 9.05719C21.4705 8.13612 23.8512 7.63455 26.0303 7.45722L28.4773 7.25739C31.1596 7.04035 33.8433 7.17269 36.527 7.17269H38V8.55563C38 14.6922 38 20.8314 38 26.9692V27.6746C38 34.011 32.4817 39.192 25.7301 39.192H1V7.17269H2.47154C5.1595 7.17269 7.83337 7.00727 10.5199 7.20313L12.9683 7.37649C15.2926 7.54059 17.421 8.07127 19.5085 9.05719Z" fill="#4D4C4B"/>
<path fill-rule="evenodd" clip-rule="evenodd" d="M2.47156 8.55544V24.3289V26.969V27.6744V37.8115H13.2657H14.9628H25.7301C31.6698 37.8115 36.5271 33.2485 36.5271 27.6744V26.969C36.5271 20.8669 36.5271 14.9143 36.5271 8.55544C33.9476 8.55544 31.2216 8.49588 28.6055 8.63484L26.1572 8.83335C23.761 9.10596 21.3366 9.63135 19.5 10.6265C17.5168 9.55062 15.3546 9.01597 12.8569 8.75394L10.4086 8.57926C7.73895 8.4628 5.00165 8.55544 2.47156 8.55544Z" fill="white"/>
<path fill-rule="evenodd" clip-rule="evenodd" d="M5.52454 37.8117H13.2656H14.9627H25.7301C28.3616 37.8117 30.779 36.9158 32.655 35.4349C30.4632 30.6509 25.3974 27.3027 19.4986 27.3027C12.6652 27.3027 6.94956 31.797 5.52454 37.8117Z" fill="white"/>
<path fill-rule="evenodd" clip-rule="evenodd" d="M19.5 37.8118L25.857 37.7231C28.4519 37.7231 30.8157 36.8629 32.6565 35.4363C35.0259 33.5968 36.527 30.8124 36.527 27.6746V26.9692C36.527 20.8671 36.527 14.9145 36.527 8.55565C33.9476 8.55565 31.2216 8.4961 28.6055 8.63506L26.1572 8.83357C23.761 9.10618 21.3366 9.63157 19.5 10.6268V37.8118Z" fill="white"/>
<path fill-rule="evenodd" clip-rule="evenodd" d="M19.5 37.812H25.7696C28.4011 37.812 30.779 36.9161 32.6565 35.4365C30.4886 30.7054 25.3129 27.3785 19.5 27.3057V37.812Z" fill="white"/>
<path fill-rule="evenodd" clip-rule="evenodd" d="M28.6055 7.67696C28.1376 3.36272 24.2529 0 19.5381 0C14.8246 0 10.9428 3.33361 10.4086 7.62403L12.8569 7.79872C13.2896 4.70067 16.1016 2.30402 19.5282 2.30402C22.9533 2.30402 25.7907 4.74037 26.1572 7.87547L28.6055 7.67696Z" fill="white"/>
<path fill-rule="evenodd" clip-rule="evenodd" d="M23.4819 28.651C22.4149 29.711 21.3493 30.7697 20.2837 31.8311L19.4986 32.6119L18.7149 31.8311C17.6493 30.7724 16.5837 29.711 15.5167 28.651L14.9656 28.1005L15.3687 27.448C16.2243 26.0625 17.8241 25.3174 19.4986 25.3174C21.1759 25.3174 22.7743 26.0625 23.6299 27.448L24.0345 28.1005L23.4819 28.651Z" fill="#4D4C4B"/>
<path fill-rule="evenodd" clip-rule="evenodd" d="M22.6968 27.9565C21.6326 29.0166 20.5642 30.0753 19.4986 31.1366C18.433 30.0753 17.3674 29.0166 16.3004 27.9565C16.9741 26.8674 18.2384 26.3288 19.4986 26.3301C20.7601 26.3288 22.023 26.8674 22.6968 27.9565Z" fill="#FDF8B4"/>
<path fill-rule="evenodd" clip-rule="evenodd" d="M22.6967 27.9565C21.6326 29.0166 20.5641 30.0753 19.4985 31.1366V26.3301C20.7601 26.3288 22.023 26.8674 22.6967 27.9565Z" fill="#FCD066"/>
<path fill-rule="evenodd" clip-rule="evenodd" d="M11.508 12.543C16.2849 12.543 20.1597 16.1823 20.1597 20.6646C20.1597 25.1495 16.2849 28.7875 11.508 28.7875C6.73116 28.7875 2.85779 25.1495 2.85779 20.6646C2.85779 16.1823 6.73116 12.543 11.508 12.543Z" fill="#4D4C4B"/>
<path fill-rule="evenodd" clip-rule="evenodd" d="M11.508 13.9248C15.473 13.9248 18.6881 16.9434 18.6881 20.6648C18.6881 24.3875 15.473 27.4061 11.508 27.4061C7.54159 27.4061 4.32928 24.3875 4.32928 20.6648C4.32928 16.9434 7.54159 13.9248 11.508 13.9248Z" fill="#EEEFEE"/>
<path fill-rule="evenodd" clip-rule="evenodd" d="M11.508 13.9248C14.7795 13.9248 17.5422 15.9813 18.4062 18.7922C17.5422 21.6018 14.7795 23.6583 11.508 23.6583C8.23509 23.6583 5.47665 21.6018 4.61121 18.7922C5.47665 15.9813 8.23509 13.9248 11.508 13.9248Z" fill="#FEFEFE"/>
<path fill-rule="evenodd" clip-rule="evenodd" d="M27.4906 12.543C32.2675 12.543 36.1409 16.1823 36.1409 20.6646C36.1409 25.1495 32.2675 28.7875 27.4906 28.7875C22.7138 28.7875 18.839 25.1522 18.839 20.6646C18.839 16.1823 22.7138 12.543 27.4906 12.543Z" fill="#4D4C4B"/>
<path fill-rule="evenodd" clip-rule="evenodd" d="M27.4906 13.9248C31.4542 13.9248 34.6693 16.9434 34.6693 20.6648C34.6693 24.3875 31.4542 27.4061 27.4906 27.4061C23.5256 27.4061 20.3119 24.3875 20.3119 20.6648C20.3119 16.9434 23.5256 13.9248 27.4906 13.9248Z" fill="#EEEFEE"/>
<path fill-rule="evenodd" clip-rule="evenodd" d="M27.4906 13.9248C30.7621 13.9248 33.5233 15.9813 34.3874 18.7922C33.5233 21.6018 30.7621 23.6583 27.4906 23.6583C24.2176 23.6583 21.4564 21.6018 20.5909 18.7922C21.4564 15.9813 24.2176 13.9248 27.4906 13.9248Z" fill="#FEFEFE"/>
<path fill-rule="evenodd" clip-rule="evenodd" d="M12.4101 16.4736C14.9712 16.4736 17.0474 18.423 17.0474 20.8236C17.0474 23.2295 14.9712 25.1789 12.4101 25.1789C9.849 25.1789 7.77277 23.2295 7.77277 20.8236C7.77277 20.023 8.00534 19.2726 8.40846 18.6268C8.7397 19.3957 9.54031 19.9356 10.4791 19.9356C11.7124 19.9356 12.7131 18.9987 12.7131 17.8407C12.7131 17.3193 12.5102 16.8429 12.1761 16.4776C12.2536 16.4736 12.3326 16.4736 12.4101 16.4736Z" fill="#4D4C4B"/>
<path fill-rule="evenodd" clip-rule="evenodd" d="M26.5871 16.4736C29.1496 16.4736 31.2244 18.423 31.2244 20.8236C31.2244 23.2295 29.1496 25.1789 26.5857 25.1789C24.0274 25.1789 21.9512 23.2295 21.9512 20.8236C21.9512 20.023 22.1823 19.2726 22.584 18.6268C22.9167 19.3957 23.7187 19.9356 24.6575 19.9356C25.8894 19.9356 26.8887 18.9987 26.8887 17.8407C26.8887 17.3193 26.6886 16.8429 26.3545 16.4776C26.432 16.4736 26.5082 16.4736 26.5871 16.4736Z" fill="#4D4C4B"/>
</svg>
