<svg width="40" height="40" viewBox="0 0 40 40" fill="none" xmlns="http://www.w3.org/2000/svg">
<path d="M32.2033 9.26933C31.9502 9.13852 31.7038 8.99511 31.465 8.83965C30.7707 8.38063 30.1341 7.83976 29.5689 7.22871C28.1549 5.61074 27.6267 3.96934 27.4322 2.82012H27.44C27.2775 1.86621 27.3447 1.24902 27.3549 1.24902H20.9142V26.1537C20.9142 26.4881 20.9142 26.8185 20.9002 27.1451C20.9002 27.1857 20.8963 27.2232 20.8939 27.267C20.8939 27.285 20.8939 27.3037 20.89 27.3225C20.89 27.3271 20.89 27.3318 20.89 27.3365C20.8221 28.2301 20.5357 29.0933 20.0559 29.8502C19.5761 30.6071 18.9176 31.2345 18.1385 31.6771C17.3264 32.1391 16.4079 32.3815 15.4736 32.3803C12.4728 32.3803 10.0408 29.9334 10.0408 26.9115C10.0408 23.8896 12.4728 21.4428 15.4736 21.4428C16.0416 21.4422 16.6062 21.5316 17.1463 21.7076L17.1541 15.1498C15.5145 14.938 13.8489 15.0683 12.2622 15.5325C10.6755 15.9967 9.20224 16.7846 7.93533 17.8467C6.82522 18.8112 5.89195 19.9621 5.17752 21.2475C4.90564 21.7162 3.87986 23.5998 3.75564 26.6568C3.67752 28.392 4.19861 30.1896 4.44705 30.9326V30.9482C4.6033 31.3857 5.20877 32.8787 6.19549 34.1373C6.99114 35.1469 7.93118 36.0337 8.98533 36.7693V36.7537L9.00096 36.7693C12.1189 38.8881 15.576 38.749 15.576 38.749C16.1744 38.7248 18.1791 38.749 20.4556 37.6701C22.9806 36.474 24.4181 34.692 24.4181 34.692C25.3365 33.6272 26.0667 32.4138 26.5775 31.1037C27.1603 29.5717 27.3549 27.7342 27.3549 26.9998V13.7873C27.433 13.8342 28.4736 14.5225 28.4736 14.5225C28.4736 14.5225 29.9728 15.4834 32.3119 16.1092C33.99 16.5545 36.251 16.6482 36.251 16.6482V10.2545C35.4588 10.3404 33.8502 10.0904 32.2033 9.26933Z" fill="white"/>
</svg>
