<svg width="14" height="15" viewBox="0 0 14 15" fill="none" xmlns="http://www.w3.org/2000/svg">
<path fill-rule="evenodd" clip-rule="evenodd" d="M11.9561 2.91915C11.3091 2.29017 10.5405 1.79175 9.6945 1.45258C8.8485 1.11342 7.94181 0.940198 7.02664 0.942902C3.18593 0.942902 0.0593715 3.96586 0.0578094 7.68217C0.0561104 8.86553 0.377118 10.0282 0.988153 11.0518L-0.000610352 14.5429L3.69358 13.6058C4.71616 14.1441 5.86084 14.4258 7.02383 14.4254H7.02664C10.867 14.4254 13.9933 11.4021 13.9952 7.68612C13.9975 6.79986 13.8184 5.922 13.4683 5.10362C13.1183 4.28524 12.6042 3.54268 11.9561 2.91915ZM7.02664 13.2879H7.02414C5.98739 13.2882 4.96948 13.0186 4.07628 12.5071L3.86478 12.3857L1.67263 12.9418L2.25777 10.8748L2.12 10.6623C1.54029 9.77049 1.23316 8.73701 1.23433 7.68217C1.23433 4.59395 3.83386 2.08129 7.02883 2.08129C8.56148 2.07863 10.0325 2.66765 11.1182 3.71879C12.204 4.76993 12.8157 6.19711 12.8186 7.68642C12.8174 10.775 10.2191 13.2879 7.02664 13.2879ZM10.2035 9.09287C10.0295 9.00847 9.17255 8.60108 9.01385 8.54492C8.85515 8.48876 8.738 8.46053 8.6221 8.62931C8.50619 8.7981 8.17223 9.17574 8.0707 9.28958C7.96917 9.40342 7.86764 9.41587 7.69363 9.33147C7.51962 9.24708 6.95822 9.06949 6.29311 8.49574C5.77546 8.04919 5.42619 7.49791 5.32465 7.32942C5.22312 7.16094 5.31372 7.06957 5.40088 6.98578C5.47929 6.91019 5.57489 6.78907 5.66205 6.69071C5.74921 6.59235 5.77827 6.52193 5.83606 6.4096C5.89386 6.29728 5.86512 6.19893 5.82169 6.11484C5.77827 6.03075 5.42993 5.2017 5.28498 4.86443C5.14346 4.53597 5.00006 4.58059 4.89322 4.57543C4.79169 4.57057 4.67454 4.56936 4.55926 4.56936C4.47113 4.57159 4.38443 4.59145 4.30455 4.62769C4.22468 4.66394 4.15335 4.7158 4.09503 4.78004C3.93539 4.94882 3.48552 5.35682 3.48552 6.18496C3.48552 7.0131 4.11033 7.81453 4.19656 7.92685C4.28278 8.03917 5.42431 9.74008 7.17097 10.4696C7.49531 10.6045 7.8267 10.7229 8.1638 10.8241C8.58086 10.9522 8.96043 10.9343 9.26034 10.8909C9.59493 10.8426 10.2913 10.4835 10.4359 10.0901C10.5806 9.69667 10.5809 9.35971 10.5375 9.28958C10.494 9.21946 10.3778 9.17696 10.2035 9.09287Z" fill="white"/>
</svg>
