<svg width="41" height="41" viewBox="0 0 41 41" fill="none" xmlns="http://www.w3.org/2000/svg">
<path d="M19.0062 4.15077C19.3795 3.00166 21.0052 3.00166 21.3786 4.15077L24.4026 13.4578C24.5696 13.9717 25.0485 14.3197 25.5888 14.3197H35.3749C36.5831 14.3197 37.0855 15.8658 36.108 16.576L28.1909 22.328C27.7538 22.6456 27.5709 23.2086 27.7378 23.7225L30.7619 33.0296C31.1352 34.1787 29.82 35.1342 28.8426 34.424L20.9255 28.672C20.4884 28.3544 19.8964 28.3544 19.4593 28.672L11.5422 34.424C10.5647 35.1342 9.24952 34.1787 9.62288 33.0296L12.6469 23.7225C12.8139 23.2086 12.631 22.6456 12.1938 22.328L4.27678 16.576C3.2993 15.8658 3.80166 14.3197 5.0099 14.3197H14.7959C15.3363 14.3197 15.8152 13.9717 15.9821 13.4578L19.0062 4.15077Z" fill="white"/>
</svg>
