<svg width="25" height="26" viewBox="0 0 25 26" fill="none" xmlns="http://www.w3.org/2000/svg">
<path d="M19.2383 24.4088C19.0739 24.4094 18.9134 24.3579 18.7798 24.2617L12.5 19.689L6.22024 24.2617C6.08607 24.3594 5.92444 24.4117 5.7587 24.4111C5.59297 24.4105 5.43172 24.357 5.29826 24.2583C5.16481 24.1596 5.06607 24.0208 5.01632 23.862C4.96657 23.7032 4.96839 23.5327 5.02151 23.375L7.47073 16.0889L1.12307 11.7169C0.985575 11.6223 0.881802 11.486 0.826913 11.328C0.772023 11.1699 0.768895 10.9984 0.817983 10.8384C0.867072 10.6784 0.965806 10.5384 1.09976 10.4389C1.23371 10.3393 1.39586 10.2853 1.56252 10.2849H9.39358L11.7569 2.98016C11.8078 2.82245 11.9071 2.68499 12.0406 2.5875C12.1741 2.49001 12.335 2.4375 12.5 2.4375C12.6651 2.4375 12.8259 2.49001 12.9594 2.5875C13.0929 2.68499 13.1923 2.82245 13.2432 2.98016L15.6065 10.2873H23.4375C23.6044 10.2872 23.7669 10.3408 23.9013 10.4402C24.0356 10.5396 24.1347 10.6796 24.1841 10.8397C24.2335 10.9998 24.2306 11.1715 24.1758 11.3298C24.1209 11.4881 24.0171 11.6246 23.8794 11.7193L17.5293 16.0889L19.9771 23.373C20.0167 23.491 20.0279 23.6167 20.0096 23.7398C19.9913 23.8629 19.9442 23.9799 19.872 24.0811C19.7998 24.1823 19.7047 24.2648 19.5945 24.3217C19.4843 24.3787 19.3622 24.4086 19.2383 24.4088Z" fill="#E9C02D"/>
</svg>
